<?xml version="1.0" encoding="utf-8"?>
<!-- Generator: Adobe Illustrator 17.0.0, SVG Export Plug-In . SVG Version: 6.00 Build 0)  -->
<!DOCTYPE svg PUBLIC "-//W3C//DTD SVG 1.1//EN" "http://www.w3.org/Graphics/SVG/1.1/DTD/svg11.dtd">
<svg version="1.1" id="Layer_1" xmlns="http://www.w3.org/2000/svg" xmlns:xlink="http://www.w3.org/1999/xlink" x="0px" y="0px"
	 width="121.5px" height="120px" viewBox="0 0 121.5 120" enable-background="new 0 0 121.5 120" xml:space="preserve">
<g>
	<path fill="#565656" d="M61.34,117.5c-31.43,0-57-25.57-57-57s25.57-57,57-57s57,25.57,57,57S92.771,117.5,61.34,117.5z M61.34,9.5
		c-28.122,0-51,22.878-51,51c0,28.121,22.878,51,51,51s51-22.879,51-51C112.341,32.378,89.462,9.5,61.34,9.5z"/>
</g>
<g>
	<path fill="#565656" d="M93.591,85.5c0,1.375-1.35,2.5-3,2.5h-58.5c-1.65,0-3-1.125-3-2.5s1.35-2.5,3-2.5h58.5
		C92.241,83,93.591,84.125,93.591,85.5z"/>
</g>
<g>
	<path fill="#565656" d="M93.591,60.5c0,1.375-1.35,2.5-3,2.5h-58.5c-1.65,0-3-1.125-3-2.5s1.35-2.5,3-2.5h58.5
		C92.241,58,93.591,59.125,93.591,60.5z"/>
</g>
<g>
	<path fill="#565656" d="M93.591,35.5c0,1.375-1.35,2.5-3,2.5h-58.5c-1.65,0-3-1.125-3-2.5s1.35-2.5,3-2.5h58.5
		C92.241,33,93.591,34.125,93.591,35.5z"/>
</g>
</svg>
