<?xml version="1.0" encoding="utf-8"?>
<!-- Generator: Adobe Illustrator 17.0.0, SVG Export Plug-In . SVG Version: 6.00 Build 0)  -->
<!DOCTYPE svg PUBLIC "-//W3C//DTD SVG 1.1//EN" "http://www.w3.org/Graphics/SVG/1.1/DTD/svg11.dtd">
<svg version="1.1" id="Layer_1" xmlns="http://www.w3.org/2000/svg" xmlns:xlink="http://www.w3.org/1999/xlink" x="0px" y="0px"
	 width="121.5px" height="120px" viewBox="0 0 121.5 120" enable-background="new 0 0 121.5 120" xml:space="preserve">
<g>
	<g>
		<path fill="#595959" d="M84.145,83.054c-0.972,0.972-2.722,0.813-3.889-0.354L38.89,41.335c-1.167-1.167-1.326-2.917-0.354-3.889
			s2.722-0.813,3.889,0.354l41.366,41.366C84.958,80.332,85.117,82.082,84.145,83.054z"/>
	</g>
	<g>
		<path fill="#595959" d="M38.536,83.554c-0.972-0.972-0.813-2.722,0.354-3.889l41.366-41.366c1.167-1.167,2.917-1.326,3.889-0.354
			s0.813,2.722-0.354,3.889L42.425,83.201C41.259,84.368,39.508,84.527,38.536,83.554z"/>
	</g>
</g>
<g>
	<path fill="#595959" d="M61.34,117.5c-31.43,0-57-25.57-57-57s25.57-57,57-57s57,25.57,57,57S92.771,117.5,61.34,117.5z M61.34,9.5
		c-28.122,0-51,22.878-51,51c0,28.121,22.878,51,51,51s51-22.879,51-51C112.341,32.378,89.462,9.5,61.34,9.5z"/>
</g>
</svg>
